<?xml version="1.0" encoding="UTF-8"?>
<!DOCTYPE svg PUBLIC "-//W3C//DTD SVG 1.1//EN" "http://www.w3.org/Graphics/SVG/1.1/DTD/svg11.dtd">
<svg xmlns="http://www.w3.org/2000/svg" version="1.1" width="240px" height="240px" style="shape-rendering:geometricPrecision; text-rendering:geometricPrecision; image-rendering:optimizeQuality; fill-rule:evenodd; clip-rule:evenodd" xmlns:xlink="http://www.w3.org/1999/xlink">
<g><path style="opacity:1" fill="#fefdfd" d="M -0.5,-0.5 C 79.5,-0.5 159.5,-0.5 239.5,-0.5C 239.5,79.5 239.5,159.5 239.5,239.5C 159.5,239.5 79.5,239.5 -0.5,239.5C -0.5,159.5 -0.5,79.5 -0.5,-0.5 Z"/></g>
<g><path style="opacity:1" fill="#8e2010" d="M 89.5,26.5 C 91.143,26.4802 92.4763,27.1468 93.5,28.5C 96.21,26.5196 99.0434,26.1862 102,27.5C 102.458,30.096 101.625,32.2627 99.5,34C 111.795,37.0499 113.795,43.3833 105.5,53C 92.3988,59.6384 86.2322,55.8051 87,41.5C 90.7905,38.3419 94.2905,34.8419 97.5,31C 92.3191,30.4926 88.9858,32.826 87.5,38C 86.552,38.4828 85.552,38.6495 84.5,38.5C 85.0675,34.0329 86.7342,30.0329 89.5,26.5 Z"/></g>
<g><path style="opacity:1" fill="#8d1e0f" d="M 58.5,33.5 C 60.7638,34.2186 63.0971,34.552 65.5,34.5C 65.3259,36.861 64.9926,39.1944 64.5,41.5C 71.3694,41.5377 73.8694,44.871 72,51.5C 70.135,53.9774 68.4683,56.3108 67,58.5C 70.3338,56.9578 73.8338,55.9578 77.5,55.5C 77.719,56.675 77.3857,57.675 76.5,58.5C 74.6666,59.0521 72.9999,59.8855 71.5,61C 74.7735,62.2023 78.1069,63.2023 81.5,64C 82.5815,66.3064 81.7482,67.8064 79,68.5C 74.9462,66.89 71.1128,64.89 67.5,62.5C 66.914,62.7093 66.414,63.0426 66,63.5C 65.6667,66.1667 65.3333,68.8333 65,71.5C 63.9887,72.3366 62.8221,72.67 61.5,72.5C 61.5079,69.4552 61.8413,66.4552 62.5,63.5C 59.7965,63.9555 57.1298,64.6221 54.5,65.5C 52.1282,64.6372 52.1282,63.4705 54.5,62C 57.1667,61 59.8333,60 62.5,59C 59.3408,58.9886 56.5074,58.1553 54,56.5C 53.5661,52.4522 53.5661,48.4522 54,44.5C 51.5272,43.8803 49.0272,43.2136 46.5,42.5C 48.9564,40.942 50.9564,38.942 52.5,36.5C 55.8882,38.1394 57.8882,37.1394 58.5,33.5 Z"/></g>
<g><path style="opacity:1" fill="#f6eceb" d="M 99.5,39.5 C 107.5,40.5 107.5,41.5 99.5,42.5C 99.5,41.5 99.5,40.5 99.5,39.5 Z"/></g>
<g><path style="opacity:1" fill="#8d1d0e" d="M 38.5,39.5 C 40.922,40.0852 42.5887,41.5852 43.5,44C 44.7932,44.49 46.1266,44.6567 47.5,44.5C 47.3796,46.1986 47.0463,47.8653 46.5,49.5C 49.0552,55.6135 50.7219,61.9468 51.5,68.5C 51.5474,71.2948 51.0474,73.9615 50,76.5C 47.1751,78.0843 45.0084,77.4176 43.5,74.5C 44.6888,73.5713 46.0222,73.238 47.5,73.5C 47.8174,70.4281 47.4841,67.4281 46.5,64.5C 45.289,66.4219 43.9557,68.2552 42.5,70C 41.552,70.4828 40.552,70.6495 39.5,70.5C 39.6355,66.5617 41.1355,63.2283 44,60.5C 44.8357,56.8436 44.169,53.5102 42,50.5C 39.1041,52.5328 35.9374,53.8662 32.5,54.5C 32.3505,53.448 32.5172,52.448 33,51.5C 35.414,49.7093 37.914,48.0426 40.5,46.5C 39.0541,44.3821 38.3874,42.0488 38.5,39.5 Z"/></g>
<g><path style="opacity:1" fill="#f5eae8" d="M 93.5,40.5 C 95.9118,40.6941 96.9118,42.0274 96.5,44.5C 94.6096,44.2965 93.1096,44.9632 92,46.5C 91.2568,44.1261 91.7568,42.1261 93.5,40.5 Z"/></g>
<g><path style="opacity:1" fill="#e8d0cd" d="M 57.5,40.5 C 61.2998,40.8194 61.4665,41.8194 58,43.5C 56.2716,42.6477 56.105,41.6477 57.5,40.5 Z"/></g>
<g><path style="opacity:1" fill="#f1e1e0" d="M 102.5,45.5 C 106.193,46.2471 106.193,47.5804 102.5,49.5C 101.374,48.1916 101.374,46.8583 102.5,45.5 Z"/></g>
<g><path style="opacity:1" fill="#dab4af" d="M 61.5,45.5 C 62.8734,45.3433 64.2068,45.51 65.5,46C 62.9417,47.6263 60.275,48.6263 57.5,49C 58.7305,47.5952 60.0639,46.4286 61.5,45.5 Z"/></g>
<g><path style="opacity:1" fill="#eedcda" d="M 92.5,48.5 C 94.9775,48.0508 96.9775,48.7175 98.5,50.5C 96.604,51.4656 94.604,51.7989 92.5,51.5C 92.5,50.5 92.5,49.5 92.5,48.5 Z"/></g>
<g><path style="opacity:1" fill="#eddad8" d="M 65.5,49.5 C 67.9424,49.3537 68.6091,50.187 67.5,52C 64.2049,53.6322 60.8716,54.1322 57.5,53.5C 60.2497,52.1252 62.9163,50.7918 65.5,49.5 Z"/></g>
<g><path style="opacity:1" fill="#8f2212" d="M 116.5,51.5 C 117.833,51.5 119.167,51.5 120.5,51.5C 120.703,53.3904 120.037,54.8904 118.5,56C 109.452,59.2383 100.286,62.0716 91,64.5C 87.9875,63.9555 87.8208,62.7888 90.5,61C 99.5883,58.6958 108.255,55.5291 116.5,51.5 Z"/></g>
<g><path style="opacity:1" fill="#8c1d0e" d="M 173.5,79.5 C 178.118,78.9239 182.285,79.9239 186,82.5C 187.812,86.7222 189.312,91.0555 190.5,95.5C 192.263,94.0462 193.597,94.3796 194.5,96.5C 193.619,97.9705 192.286,98.8038 190.5,99C 192.302,100.827 194.468,101.994 197,102.5C 197.492,103.549 197.326,104.549 196.5,105.5C 202.224,114.281 206.89,123.614 210.5,133.5C 214.03,130.805 217.696,128.305 221.5,126C 227.08,124.739 228.913,126.906 227,132.5C 224.314,141.054 222.147,149.721 220.5,158.5C 222.602,169.405 224.935,180.238 227.5,191C 227.481,194.033 226.148,196.367 223.5,198C 216.392,201.489 209.392,201.322 202.5,197.5C 193.685,201.873 184.351,204.706 174.5,206C 169.334,209.354 163.668,210.354 157.5,209C 155.397,206.446 152.897,205.946 150,207.5C 149.74,211.416 147.74,213.416 144,213.5C 138.259,212.215 132.759,210.215 127.5,207.5C 121.656,211.018 115.656,211.352 109.5,208.5C 100.759,212.358 91.7586,215.525 82.5,218C 78.5,218.667 74.5,218.667 70.5,218C 51.0408,208.541 34.5408,195.374 21,178.5C 16.4057,172.679 16.5724,167.179 21.5,162C 36.7178,151.724 53.0511,143.558 70.5,137.5C 73.4859,122.35 79.8193,108.85 89.5,97C 92.2162,94.8489 94.7162,95.0155 97,97.5C 97.2638,92.038 99.0972,87.2047 102.5,83C 109.412,81.2386 116.245,81.7386 123,84.5C 136.069,79.6594 149.236,79.326 162.5,83.5C 166.142,81.9146 169.808,80.5813 173.5,79.5 Z"/></g>
<g><path style="opacity:1" fill="#a65433" d="M 174.5,83.5 C 181.782,82.4574 184.782,85.4574 183.5,92.5C 179.461,89.4809 175.128,86.9809 170.5,85C 172.058,84.79 173.391,84.29 174.5,83.5 Z"/></g>
<g><path style="opacity:1" fill="#eebd96" d="M 174.5,91.5 C 172.369,92.3138 170.036,92.8138 167.5,93C 164.068,95.367 163.735,98.0337 166.5,101C 171.114,103.402 175.281,102.902 179,99.5C 179.49,98.2068 179.657,96.8734 179.5,95.5C 182.734,96.0056 183.401,97.6722 181.5,100.5C 183.199,100.34 184.866,100.506 186.5,101C 184.993,101.837 184.493,103.004 185,104.5C 189.637,104.329 192.804,106.329 194.5,110.5C 193.626,122.026 193.626,133.359 194.5,144.5C 183.618,138.984 172.284,134.65 160.5,131.5C 160.5,130.5 160.5,129.5 160.5,128.5C 158.217,128.608 156.217,129.441 154.5,131C 149.853,132.48 146.187,131.314 143.5,127.5C 144.611,123.389 147.278,121.055 151.5,120.5C 147.774,116.4 144.274,116.733 141,121.5C 139.798,123.677 139.298,126.011 139.5,128.5C 127.765,128.184 116.099,128.851 104.5,130.5C 102.368,122.969 100.702,115.302 99.5,107.5C 99.6667,106.167 99.8333,104.833 100,103.5C 100.383,102.944 100.883,102.611 101.5,102.5C 101.137,104.911 102.137,106.411 104.5,107C 108.18,108.027 111.347,107.194 114,104.5C 114.667,103.167 114.667,101.833 114,100.5C 111.379,99.0085 108.545,98.3418 105.5,98.5C 120.221,87.1531 136.887,82.9864 155.5,86C 162.061,87.1323 168.394,88.9656 174.5,91.5 Z"/></g>
<g><path style="opacity:1" fill="#a65433" d="M 105.5,85.5 C 108.649,85.2114 111.649,85.7114 114.5,87C 110.247,89.7097 106.08,92.543 102,95.5C 101.935,91.7732 103.101,88.4398 105.5,85.5 Z"/></g>
<g><path style="opacity:1" fill="#8f220f" d="M 161.5,89.5 C 164.932,89.2479 165.932,90.5812 164.5,93.5C 160.986,95.1167 157.319,96.1167 153.5,96.5C 153.5,95.1667 153.5,93.8333 153.5,92.5C 156.542,92.2671 159.208,91.2671 161.5,89.5 Z"/></g>
<g><path style="opacity:1" fill="#fd8379" d="M 174.5,91.5 C 176.389,92.604 178.055,93.9373 179.5,95.5C 179.657,96.8734 179.49,98.2068 179,99.5C 175.281,102.902 171.114,103.402 166.5,101C 163.735,98.0337 164.068,95.367 167.5,93C 170.036,92.8138 172.369,92.3138 174.5,91.5 Z"/></g>
<g><path style="opacity:1" fill="#8d1c0b" d="M 113.5,94.5 C 117.514,94.3345 121.514,94.5012 125.5,95C 126.833,96 126.833,97 125.5,98C 121.833,98.6667 118.167,98.6667 114.5,98C 113.663,96.9887 113.33,95.8221 113.5,94.5 Z"/></g>
<g><path style="opacity:1" fill="#fd8278" d="M 105.5,98.5 C 108.545,98.3418 111.379,99.0085 114,100.5C 114.667,101.833 114.667,103.167 114,104.5C 111.347,107.194 108.18,108.027 104.5,107C 102.137,106.411 101.137,104.911 101.5,102.5C 102.5,100.833 103.833,99.5 105.5,98.5 Z"/></g>
<g><path style="opacity:1" fill="#912613" d="M 138.5,95.5 C 141.711,97.2487 145.044,97.9153 148.5,97.5C 147.5,98.8333 146.5,100.167 145.5,101.5C 147.263,106.3 146.263,110.3 142.5,113.5C 138.67,110.495 137.003,106.495 137.5,101.5C 133.062,102.575 131.062,100.908 131.5,96.5C 133.124,96.3601 134.29,97.0267 135,98.5C 136.518,97.8366 137.685,96.8366 138.5,95.5 Z"/></g>
<g><path style="opacity:1" fill="#efdddb" d="M 139.5,99.5 C 142.359,99.8007 143.693,101.467 143.5,104.5C 143.564,106.389 143.064,108.056 142,109.5C 140.974,106.198 140.14,102.865 139.5,99.5 Z"/></g>
<g><path style="opacity:1" fill="#8d1f0f" d="M 29.5,100.5 C 33.9015,99.8696 37.5682,101.203 40.5,104.5C 42.3735,108.677 44.5402,112.677 47,116.5C 47.443,122.071 46.943,127.571 45.5,133C 46.861,134.927 47.6943,137.094 48,139.5C 48.7504,140.126 49.5838,140.626 50.5,141C 48.6472,142.669 46.6472,142.835 44.5,141.5C 43.9049,138.683 42.5716,136.35 40.5,134.5C 41.3877,132.845 41.8877,131.178 42,129.5C 35.4522,133.466 28.9522,133.299 22.5,129C 19.6819,125.662 18.8485,121.829 20,117.5C 21.7497,114.754 22.7497,111.754 23,108.5C 24.3046,105.039 26.4713,102.372 29.5,100.5 Z"/></g>
<g><path style="opacity:1" fill="#98b6db" d="M 185.5,167.5 C 171.949,169.721 158.616,172.888 145.5,177C 141.872,177.79 139.872,179.957 139.5,183.5C 138.305,183.866 137.639,184.699 137.5,186C 141.442,193.387 144.108,201.22 145.5,209.5C 134.544,206.518 124.211,202.185 114.5,196.5C 107.833,190.162 100.167,185.329 91.5,182C 70.0459,178.811 48.7126,177.978 27.5,179.5C 25.1397,177.287 23.3063,174.621 22,171.5C 21.4795,169.711 21.8129,168.044 23,166.5C 38.3556,155.239 55.1889,146.739 73.5,141C 76.4303,128.874 80.9303,117.374 87,106.5C 88.6097,104.269 90.443,102.269 92.5,100.5C 93.086,100.709 93.586,101.043 94,101.5C 95.8207,112.95 98.654,124.117 102.5,135C 111.205,133.398 120.038,132.565 129,132.5C 133.167,132.667 137.333,132.833 141.5,133C 143.438,134.872 145.771,135.705 148.5,135.5C 151.827,134.776 155.161,134.61 158.5,135C 172.714,139.236 186.381,144.736 199.5,151.5C 201.383,151.124 202.883,150.124 204,148.5C 208.333,140.833 214.333,134.833 222,130.5C 220.194,139.944 218.36,149.444 216.5,159C 217.032,166.43 218.699,173.597 221.5,180.5C 221.167,180.833 220.833,181.167 220.5,181.5C 212.191,175.856 204.858,169.189 198.5,161.5C 194.301,163.766 189.967,165.766 185.5,167.5 Z"/></g>
<g><path style="opacity:1" fill="#ebd5d2" d="M 29.5,104.5 C 33.0798,103.923 36.0798,104.923 38.5,107.5C 35.3111,106.929 31.9778,106.929 28.5,107.5C 28.1667,107.333 27.8333,107.167 27.5,107C 28.3805,106.292 29.0472,105.458 29.5,104.5 Z"/></g>
<g><path style="opacity:1" fill="#a95b39" d="M 194.5,110.5 C 199.961,118.257 203.961,126.757 206.5,136C 204.757,139.261 202.757,142.428 200.5,145.5C 198.308,146.439 196.308,146.105 194.5,144.5C 193.626,133.359 193.626,122.026 194.5,110.5 Z"/></g>
<g><path style="opacity:1" fill="#f7efef" d="M 27.5,114.5 C 36.6992,114.941 37.3659,116.941 29.5,120.5C 27.0465,118.958 26.3799,116.958 27.5,114.5 Z"/></g>
<g><path style="opacity:1" fill="#8c2214" d="M 68.5,162.5 C 75.1845,162.333 77.0178,165.333 74,171.5C 67.2051,178.537 59.8717,179.203 52,173.5C 51.3162,172.216 51.4829,171.049 52.5,170C 58.0447,167.725 63.3781,165.225 68.5,162.5 Z"/></g>
<g><path style="opacity:1" fill="#f5ebe9" d="M 69.5,165.5 C 70.675,165.281 71.675,165.614 72.5,166.5C 71.3633,169.47 69.3633,171.636 66.5,173C 62.3749,173.854 58.3749,173.52 54.5,172C 59.8074,170.295 64.8074,168.129 69.5,165.5 Z"/></g>
<g><path style="opacity:1" fill="#db9966" d="M 204.5,174.5 C 202.063,174.244 199.729,173.577 197.5,172.5C 186.712,177.007 177.045,183.007 168.5,190.5C 160.027,190.305 154.694,194.305 152.5,202.5C 151.022,202.762 149.689,202.429 148.5,201.5C 146.818,198.355 146.151,195.188 146.5,192C 163.5,183.5 180.5,175 197.5,166.5C 200.303,168.783 202.636,171.45 204.5,174.5 Z"/></g>
<g><path style="opacity:1" fill="#f9f7f7" d="M 185.5,167.5 C 171.593,175.286 157.26,182.286 142.5,188.5C 142.727,186.067 141.727,184.401 139.5,183.5C 139.872,179.957 141.872,177.79 145.5,177C 158.616,172.888 171.949,169.721 185.5,167.5 Z"/></g>
<g><path style="opacity:1" fill="#eebe96" d="M 204.5,174.5 C 206.026,175.492 206.693,176.992 206.5,179C 205.228,186.892 201.228,192.892 194.5,197C 187.308,199.298 179.974,200.965 172.5,202C 168.785,205.31 164.452,206.31 159.5,205C 156.646,201.4 157.313,198.4 161.5,196C 163.715,194.956 166.048,194.29 168.5,194C 169.684,192.855 169.684,191.688 168.5,190.5C 177.045,183.007 186.712,177.007 197.5,172.5C 199.729,173.577 202.063,174.244 204.5,174.5 Z"/></g>
<g><path style="opacity:1" fill="#881508" d="M 28.5,174.5 C 30.8273,174.247 32.8273,174.914 34.5,176.5C 31.707,177.972 29.707,177.306 28.5,174.5 Z"/></g>
<g><path style="opacity:1" fill="#fbf9fa" d="M 114.5,196.5 C 112.072,195.788 109.739,194.788 107.5,193.5C 105.466,194.574 105.133,195.907 106.5,197.5C 103.616,199.527 100.45,201.194 97,202.5C 95.9701,202.164 95.4701,201.497 95.5,200.5C 95.8393,190.839 91.1726,186.173 81.5,186.5C 68.9427,189.076 56.7761,192.743 45,197.5C 38.2924,192.293 32.4591,186.293 27.5,179.5C 48.7126,177.978 70.0459,178.811 91.5,182C 100.167,185.329 107.833,190.162 114.5,196.5 Z"/></g>
<g><path style="opacity:1" fill="#ead5d3" d="M 210.5,180.5 C 214.051,181.186 214.217,182.186 211,183.5C 210.517,182.552 210.351,181.552 210.5,180.5 Z"/></g>
<g><path style="opacity:1" fill="#da9865" d="M 215.5,184.5 C 221.773,184.386 224.273,187.386 223,193.5C 221.829,194.893 220.329,195.727 218.5,196C 214.11,196.772 209.777,196.606 205.5,195.5C 205.167,195.167 204.833,194.833 204.5,194.5C 205.919,192.664 207.086,190.664 208,188.5C 210.633,187.248 213.133,185.914 215.5,184.5 Z"/></g>
<g><path style="opacity:1" fill="#ddb9b5" d="M 83.5,190.5 C 84.8917,189.478 86.225,189.811 87.5,191.5C 87.1667,191.833 86.8333,192.167 86.5,192.5C 85.4822,191.807 84.4822,191.141 83.5,190.5 Z"/></g>
<g><path style="opacity:1" fill="#f0e1df" d="M 72.5,191.5 C 73.8333,191.5 75.1667,191.5 76.5,191.5C 76.2115,196.275 74.5448,196.775 71.5,193C 72.056,192.617 72.3893,192.117 72.5,191.5 Z"/></g>
<g><path style="opacity:1" fill="#e2c3bf" d="M 78.5,197.5 C 78.8367,192.097 80.8367,191.264 84.5,195C 82.1887,195.236 80.1887,196.069 78.5,197.5 Z"/></g>
<g><path style="opacity:1" fill="#eedbd9" d="M 62.5,194.5 C 63.6491,194.791 64.3158,195.624 64.5,197C 64.6125,198.662 63.9458,199.829 62.5,200.5C 60.3359,199.586 58.3359,198.419 56.5,197C 58.7226,196.434 60.7226,195.6 62.5,194.5 Z"/></g>
<g><path style="opacity:1" fill="#ecd6d3" d="M 89.5,193.5 C 91.6157,195.088 91.949,197.088 90.5,199.5C 88.8333,198.333 87.1667,197.167 85.5,196C 87.3197,195.8 88.653,194.966 89.5,193.5 Z"/></g>
<g><path style="opacity:1" fill="#efdddb" d="M 78.5,197.5 C 78.2287,199.312 77.562,200.978 76.5,202.5C 72.4247,199.353 69.0914,199.853 66.5,204C 64.6131,204.78 62.9464,204.613 61.5,203.5C 65.7889,202.751 67.7889,200.084 67.5,195.5C 70.0903,196.252 72.5903,197.252 75,198.5C 76.2559,198.352 77.4226,198.018 78.5,197.5 Z"/></g>
<g><path style="opacity:1" fill="#ecd8d6" d="M 48.5,198.5 C 49.8333,198.5 51.1667,198.5 52.5,198.5C 51.7589,203.503 50.4256,203.503 48.5,198.5 Z"/></g>
<g><path style="opacity:1" fill="#d6c6ca" d="M 106.5,197.5 C 108.969,198.569 111.302,199.902 113.5,201.5C 103.536,206.544 93.2028,210.711 82.5,214C 76.4434,215.162 70.7767,214.162 65.5,211C 74.0632,208.359 82.7299,206.025 91.5,204C 93.3502,203.31 94.6836,202.144 95.5,200.5C 95.4701,201.497 95.9701,202.164 97,202.5C 100.45,201.194 103.616,199.527 106.5,197.5 Z"/></g>
<g><path style="opacity:1" fill="#eedcda" d="M 81.5,198.5 C 88.4396,199.677 88.773,201.01 82.5,202.5C 81.8333,202.167 81.1667,201.833 80.5,201.5C 81.1272,200.583 81.4606,199.583 81.5,198.5 Z"/></g>
<g><path style="opacity:1" fill="#f0e0de" d="M 61.5,203.5 C 59.4176,203.472 57.5843,204.139 56,205.5C 54.6313,203.955 54.798,202.289 56.5,200.5C 58.3964,201.275 60.063,202.275 61.5,203.5 Z"/></g>
<g><path style="opacity:1" fill="#cb9791" d="M 70.5,203.5 C 71.3764,203.369 72.0431,203.702 72.5,204.5C 70.1916,205.873 69.5249,205.54 70.5,203.5 Z"/></g>
<g><path style="opacity:1" fill="#ce8459" d="M 117.5,203.5 C 119.09,203.628 120.423,204.295 121.5,205.5C 119.235,206.647 116.902,206.814 114.5,206C 115.942,205.623 116.942,204.79 117.5,203.5 Z"/></g>
</svg>
